<?xml version="1.0" encoding="iso-8859-1"?>
<!-- Uploaded to: SVG Repo, www.svgrepo.com, Generator: SVG Repo Mixer Tools -->
<svg height="800px" width="800px" version="1.1" id="Layer_1" xmlns="http://www.w3.org/2000/svg" xmlns:xlink="http://www.w3.org/1999/xlink" 
	 viewBox="0 0 512 512" xml:space="preserve">
<polygon style="fill:#EAEAEA;" points="194.774,303.537 107.095,167.492 19.414,303.537 10.04,286.945 107.095,136.333 
	204.15,286.945 "/>
<path style="fill:#9E52B6;" d="M170.391,286.945l-45.011,45.011h33.758c24.756,0,45.011-20.255,45.011-45.011H170.391z"/>
<path style="fill:#B175C8;" d="M10.04,286.945h160.352c0,24.756-20.255,45.011-45.011,45.011h-70.33
	C30.295,331.956,10.04,311.701,10.04,286.945z"/>
<polygon style="fill:#EAEAEA;" points="492.586,303.537 404.905,167.492 317.226,303.537 307.85,286.945 404.905,136.333 
	501.96,286.945 "/>
<path style="fill:#9E52B6;" d="M468.202,286.945l-45.011,45.011h33.758c24.756,0,45.011-20.255,45.011-45.011H468.202z"/>
<path style="fill:#B175C8;" d="M307.85,286.945h160.352c0,24.756-20.255,45.011-45.011,45.011h-70.33
	C328.105,331.956,307.85,311.701,307.85,286.945z"/>
<path style="fill:#BFBFBF;" d="M382.098,110.344l-32.993-7.843l32.082,49.411h33.758
	C414.945,133.345,400.17,114.643,382.098,110.344z"/>
<path style="fill:#D5D5D5;" d="M349.105,102.501l-76.226-18.106L256,118.154l-16.879-33.758l-109.219,25.949
	c-18.072,4.299-32.847,23.001-32.847,41.568h284.132C381.187,131.713,367.458,111.402,349.105,102.501z"/>
<path style="fill:#D6BAED;" d="M256,33.758c-9.322,0-16.879,7.557-16.879,16.879V388.22h33.758V50.637
	C272.879,41.316,265.322,33.758,256,33.758z"/>
<polygon style="fill:#BFBFBF;" points="284.132,354.462 312.264,444.484 267.253,478.242 267.253,354.462 "/>
<polygon style="fill:#D5D5D5;" points="267.253,354.462 278.505,444.484 239.121,466.989 199.736,444.484 227.868,354.462 "/>
<path style="fill:#C397DB;" d="M312.264,444.484h-33.758v56.264l67.517-22.505C346.022,459.596,330.91,444.484,312.264,444.484z"/>
<path style="fill:#D6BAED;" d="M312.264,478.242l-73.143,22.505l-73.143-22.505c0-18.646,15.112-33.758,33.758-33.758h78.769
	C297.151,444.484,312.264,459.596,312.264,478.242z"/>
<path style="fill:#9E52B6;" d="M391.033,478.242h-33.758V512h33.758c9.317,0,16.879-7.562,16.879-16.879
	C407.912,485.804,400.35,478.242,391.033,478.242z"/>
<path style="fill:#B175C8;" d="M357.275,478.242H120.967c-9.317,0-16.879,7.562-16.879,16.879c0,9.317,7.562,16.879,16.879,16.879
	h236.308c9.317,0,16.879-7.562,16.879-16.879C374.154,485.804,366.592,478.242,357.275,478.242z"/>
<g>
	<circle style="fill:#C397DB;" cx="256" cy="16.879" r="16.879"/>
	<path style="fill:#C397DB;" d="M286.945,362.901h-61.89c-4.661,0-8.44-3.779-8.44-8.44s3.779-8.44,8.44-8.44h61.89
		c4.661,0,8.44,3.779,8.44,8.44S291.606,362.901,286.945,362.901z"/>
</g>
</svg>